<svg xmlns="http://www.w3.org/2000/svg" width="87" height="87" viewBox="0 0 87 87" fill="none">
<g clip-path="url(#clip0_1_8)">
<rect width="87" height="87" fill="white"/>
<rect width="87" height="87" fill="#8B5CF6"/>
<path d="M52.0419 32.7322C51.843 30.727 50.9896 29.1693 49.4815 28.0589C47.9735 26.9486 45.9268 26.3935 43.3416 26.3935C41.585 26.3935 40.1018 26.642 38.892 27.1392C37.6823 27.6198 36.7543 28.291 36.108 29.1527C35.4782 30.0144 35.1634 30.9922 35.1634 32.0859C35.1302 32.9974 35.3208 33.7929 35.7351 34.4723C36.166 35.1518 36.7543 35.7401 37.5 36.2372C38.2457 36.7178 39.1075 37.1404 40.0852 37.505C41.063 37.853 42.107 38.1513 43.2173 38.3999L47.7912 39.4936C50.0118 39.9908 52.0502 40.6536 53.9062 41.4822C55.7623 42.3108 57.3698 43.33 58.7287 44.5398C60.0876 45.7495 61.1399 47.1747 61.8857 48.8153C62.648 50.456 63.0374 52.3369 63.054 54.4581C63.0374 57.5736 62.242 60.2749 60.6676 62.5618C59.1099 64.8321 56.8561 66.5971 53.9062 67.8565C50.973 69.0994 47.4349 69.7209 43.2919 69.7209C39.1821 69.7209 35.6025 69.0911 32.5533 67.8317C29.5206 66.5722 27.1508 64.7079 25.4439 62.2386C23.7536 59.7528 22.867 56.6787 22.7841 53.0163H33.1996C33.3156 54.7232 33.8045 56.1484 34.6662 57.2919C35.5445 58.4188 36.7128 59.2723 38.1712 59.8523C39.6461 60.4157 41.3116 60.6974 43.1676 60.6974C44.9905 60.6974 46.5732 60.4323 47.9155 59.902C49.2744 59.3717 50.3267 58.6342 51.0724 57.6896C51.8182 56.745 52.1911 55.6596 52.1911 54.4332C52.1911 53.2898 51.8513 52.3286 51.1719 51.5497C50.509 50.7708 49.5313 50.108 48.2386 49.5611C46.9626 49.0142 45.3965 48.517 43.5405 48.0696L37.9972 46.6776C33.705 45.6335 30.3161 44.0012 27.8303 41.7805C25.3445 39.5599 24.1098 36.5687 24.1264 32.8068C24.1098 29.7244 24.9302 27.0315 26.5874 24.728C28.2611 22.4245 30.5563 20.6264 33.473 19.3338C36.3897 18.0412 39.7041 17.3949 43.4162 17.3949C47.1946 17.3949 50.4924 18.0412 53.3097 19.3338C56.1435 20.6264 58.3475 22.4245 59.9219 24.728C61.4962 27.0315 62.3082 29.6996 62.358 32.7322H52.0419Z" fill="#EEEEEE"/>
</g>
<defs>
<clipPath id="clip0_1_8">
<rect width="87" height="87" fill="white"/>
</clipPath>
</defs>
</svg>
