<svg xmlns="http://www.w3.org/2000/svg" width="88" height="14" viewBox="0 0 88 14" fill="none">
<path d="M7.32386 4.71023C7.27841 4.25189 7.08333 3.89583 6.73864 3.64205C6.39394 3.38826 5.92614 3.26136 5.33523 3.26136C4.93371 3.26136 4.5947 3.31818 4.31818 3.43182C4.04167 3.54167 3.82955 3.69508 3.68182 3.89205C3.53788 4.08902 3.46591 4.3125 3.46591 4.5625C3.45833 4.77083 3.50189 4.95265 3.59659 5.10795C3.69508 5.26326 3.82955 5.39773 4 5.51136C4.17045 5.62121 4.36742 5.7178 4.59091 5.80114C4.81439 5.88068 5.05303 5.94886 5.30682 6.00568L6.35227 6.25568C6.85985 6.36932 7.32576 6.52083 7.75 6.71023C8.17424 6.89962 8.54167 7.13258 8.85227 7.40909C9.16288 7.68561 9.40341 8.01136 9.57386 8.38636C9.74811 8.76136 9.83712 9.19129 9.84091 9.67614C9.83712 10.3883 9.6553 11.0057 9.29545 11.5284C8.93939 12.0473 8.42424 12.4508 7.75 12.7386C7.07955 13.0227 6.27083 13.1648 5.32386 13.1648C4.38447 13.1648 3.56629 13.0208 2.86932 12.733C2.17614 12.4451 1.63447 12.0189 1.24432 11.4545C0.857955 10.8864 0.655303 10.1837 0.636364 9.34659H3.01705C3.04356 9.73674 3.1553 10.0625 3.35227 10.3239C3.55303 10.5814 3.82008 10.7765 4.15341 10.9091C4.49053 11.0379 4.87121 11.1023 5.29545 11.1023C5.71212 11.1023 6.07386 11.0417 6.38068 10.9205C6.69129 10.7992 6.93182 10.6307 7.10227 10.4148C7.27273 10.1989 7.35795 9.95076 7.35795 9.67045C7.35795 9.40909 7.2803 9.18939 7.125 9.01136C6.97348 8.83333 6.75 8.68182 6.45455 8.55682C6.16288 8.43182 5.80492 8.31818 5.38068 8.21591L4.11364 7.89773C3.13258 7.65909 2.35795 7.28598 1.78977 6.77841C1.22159 6.27083 0.939394 5.58712 0.943182 4.72727C0.939394 4.02273 1.12689 3.4072 1.50568 2.88068C1.88826 2.35417 2.41288 1.94318 3.07955 1.64773C3.74621 1.35227 4.50379 1.20455 5.35227 1.20455C6.21591 1.20455 6.9697 1.35227 7.61364 1.64773C8.26136 1.94318 8.76515 2.35417 9.125 2.88068C9.48485 3.4072 9.67045 4.01705 9.68182 4.71023H7.32386ZM10.9703 13V4.27273H13.3907V13H10.9703ZM12.1862 3.14773C11.8263 3.14773 11.5176 3.02841 11.2601 2.78977C11.0063 2.54735 10.8794 2.25758 10.8794 1.92045C10.8794 1.58712 11.0063 1.30114 11.2601 1.0625C11.5176 0.820075 11.8263 0.698863 12.1862 0.698863C12.546 0.698863 12.8529 0.820075 13.1066 1.0625C13.3642 1.30114 13.493 1.58712 13.493 1.92045C13.493 2.25758 13.3642 2.54735 13.1066 2.78977C12.8529 3.02841 12.546 3.14773 12.1862 3.14773ZM14.8497 13V4.27273H17.1565V5.8125H17.2587C17.4406 5.30114 17.7436 4.89773 18.1678 4.60227C18.5921 4.30682 19.0997 4.15909 19.6906 4.15909C20.2891 4.15909 20.7985 4.30871 21.219 4.60795C21.6394 4.90341 21.9197 5.30492 22.0599 5.8125H22.1508C22.3288 5.3125 22.6508 4.91288 23.1167 4.61364C23.5864 4.31061 24.1413 4.15909 24.7815 4.15909C25.5959 4.15909 26.2569 4.41856 26.7644 4.9375C27.2758 5.45265 27.5315 6.18371 27.5315 7.13068V13H25.1167V7.60795C25.1167 7.12311 24.9879 6.75947 24.7303 6.51705C24.4728 6.27462 24.1508 6.15341 23.7644 6.15341C23.325 6.15341 22.9822 6.29356 22.736 6.57386C22.4898 6.85038 22.3667 7.21591 22.3667 7.67045V13H20.0201V7.55682C20.0201 7.12879 19.897 6.78788 19.6508 6.53409C19.4084 6.2803 19.0883 6.15341 18.6906 6.15341C18.4216 6.15341 18.1792 6.22159 17.9633 6.35795C17.7512 6.49053 17.5826 6.67803 17.4576 6.92045C17.3326 7.15909 17.2701 7.43939 17.2701 7.76136V13H14.8497ZM32.9066 13.1705C32.024 13.1705 31.2608 12.983 30.6168 12.608C29.9767 12.2292 29.4823 11.7027 29.1339 11.0284C28.7854 10.3504 28.6111 9.56439 28.6111 8.67045C28.6111 7.76894 28.7854 6.98106 29.1339 6.30682C29.4823 5.62879 29.9767 5.10227 30.6168 4.72727C31.2608 4.34848 32.024 4.15909 32.9066 4.15909C33.7892 4.15909 34.5505 4.34848 35.1907 4.72727C35.8346 5.10227 36.3308 5.62879 36.6793 6.30682C37.0278 6.98106 37.202 7.76894 37.202 8.67045C37.202 9.56439 37.0278 10.3504 36.6793 11.0284C36.3308 11.7027 35.8346 12.2292 35.1907 12.608C34.5505 12.983 33.7892 13.1705 32.9066 13.1705ZM32.918 11.2955C33.3195 11.2955 33.6547 11.1818 33.9236 10.9545C34.1926 10.7235 34.3952 10.4091 34.5316 10.0114C34.6717 9.61364 34.7418 9.16098 34.7418 8.65341C34.7418 8.14583 34.6717 7.69318 34.5316 7.29545C34.3952 6.89773 34.1926 6.58333 33.9236 6.35227C33.6547 6.12121 33.3195 6.00568 32.918 6.00568C32.5127 6.00568 32.1717 6.12121 31.8952 6.35227C31.6225 6.58333 31.4161 6.89773 31.2759 7.29545C31.1395 7.69318 31.0714 8.14583 31.0714 8.65341C31.0714 9.16098 31.1395 9.61364 31.2759 10.0114C31.4161 10.4091 31.6225 10.7235 31.8952 10.9545C32.1717 11.1818 32.5127 11.2955 32.918 11.2955ZM40.7164 7.95455V13H38.2959V4.27273H40.6027V5.8125H40.705C40.8982 5.30492 41.222 4.90341 41.6766 4.60795C42.1311 4.30871 42.6823 4.15909 43.33 4.15909C43.9361 4.15909 44.4645 4.29167 44.9152 4.55682C45.366 4.82197 45.7164 5.20076 45.9664 5.69318C46.2164 6.18182 46.3414 6.76515 46.3414 7.44318V13H43.9209V7.875C43.9247 7.34091 43.7883 6.92424 43.5118 6.625C43.2353 6.32197 42.8546 6.17045 42.3698 6.17045C42.044 6.17045 41.7561 6.24053 41.5061 6.38068C41.2599 6.52083 41.0667 6.72538 40.9266 6.99432C40.7902 7.25947 40.7202 7.57955 40.7164 7.95455ZM51.0376 13V1.36364H53.4978V6.49432H53.6512L57.8387 1.36364H60.7876L56.4694 6.57386L60.8387 13H57.8956L54.7081 8.21591L53.4978 9.69318V13H51.0376ZM64.846 13.1705C63.9634 13.1705 63.2001 12.983 62.5562 12.608C61.916 12.2292 61.4217 11.7027 61.0732 11.0284C60.7248 10.3504 60.5505 9.56439 60.5505 8.67045C60.5505 7.76894 60.7248 6.98106 61.0732 6.30682C61.4217 5.62879 61.916 5.10227 62.5562 4.72727C63.2001 4.34848 63.9634 4.15909 64.846 4.15909C65.7285 4.15909 66.4899 4.34848 67.1301 4.72727C67.774 5.10227 68.2702 5.62879 68.6187 6.30682C68.9672 6.98106 69.1414 7.76894 69.1414 8.67045C69.1414 9.56439 68.9672 10.3504 68.6187 11.0284C68.2702 11.7027 67.774 12.2292 67.1301 12.608C66.4899 12.983 65.7285 13.1705 64.846 13.1705ZM64.8573 11.2955C65.2588 11.2955 65.5941 11.1818 65.863 10.9545C66.132 10.7235 66.3346 10.4091 66.471 10.0114C66.6111 9.61364 66.6812 9.16098 66.6812 8.65341C66.6812 8.14583 66.6111 7.69318 66.471 7.29545C66.3346 6.89773 66.132 6.58333 65.863 6.35227C65.5941 6.12121 65.2588 6.00568 64.8573 6.00568C64.452 6.00568 64.1111 6.12121 63.8346 6.35227C63.5619 6.58333 63.3554 6.89773 63.2153 7.29545C63.0789 7.69318 63.0107 8.14583 63.0107 8.65341C63.0107 9.16098 63.0789 9.61364 63.2153 10.0114C63.3554 10.4091 63.5619 10.7235 63.8346 10.9545C64.1111 11.1818 64.452 11.2955 64.8573 11.2955ZM63.113 3.07955C62.7873 3.07955 62.507 2.96591 62.2721 2.73864C62.0373 2.50758 61.9198 2.23485 61.9198 1.92045C61.9198 1.59848 62.0373 1.32576 62.2721 1.10227C62.507 0.878787 62.7873 0.767045 63.113 0.767045C63.4426 0.767045 63.721 0.878787 63.9482 1.10227C64.1793 1.32576 64.2948 1.59848 64.2948 1.92045C64.2948 2.23485 64.1793 2.50758 63.9482 2.73864C63.721 2.96591 63.4426 3.07955 63.113 3.07955ZM66.5903 3.07955C66.2645 3.07955 65.9842 2.96591 65.7494 2.73864C65.5145 2.50758 65.3971 2.23485 65.3971 1.92045C65.3971 1.59848 65.5145 1.32576 65.7494 1.10227C65.9842 0.878787 66.2645 0.767045 66.5903 0.767045C66.9198 0.767045 67.1982 0.878787 67.4255 1.10227C67.6566 1.32576 67.7721 1.59848 67.7721 1.92045C67.7721 2.23485 67.6566 2.50758 67.4255 2.73864C67.1982 2.96591 66.9198 3.07955 66.5903 3.07955ZM74.1785 13.1705C73.2845 13.1705 72.5156 12.9811 71.8717 12.6023C71.2315 12.2197 70.7391 11.6894 70.3944 11.0114C70.0535 10.3333 69.883 9.55303 69.883 8.67045C69.883 7.77652 70.0554 6.99242 70.4001 6.31818C70.7485 5.64015 71.2429 5.11174 71.883 4.73295C72.5232 4.35038 73.2845 4.15909 74.1671 4.15909C74.9285 4.15909 75.5951 4.29735 76.1671 4.57386C76.7391 4.85038 77.1917 5.23864 77.5251 5.73864C77.8584 6.23864 78.0421 6.82576 78.0762 7.5H75.7921C75.7277 7.06439 75.5573 6.71401 75.2807 6.44886C75.008 6.17992 74.6501 6.04545 74.2069 6.04545C73.8319 6.04545 73.5042 6.14773 73.2239 6.35227C72.9474 6.55303 72.7315 6.84659 72.5762 7.23295C72.4209 7.61932 72.3432 8.08712 72.3432 8.63636C72.3432 9.19318 72.419 9.66667 72.5705 10.0568C72.7258 10.447 72.9436 10.7443 73.2239 10.9489C73.5042 11.1534 73.8319 11.2557 74.2069 11.2557C74.4834 11.2557 74.7315 11.1989 74.9512 11.0852C75.1747 10.9716 75.3584 10.8068 75.5023 10.5909C75.6501 10.3712 75.7467 10.108 75.7921 9.80114H78.0762C78.0383 10.4678 77.8565 11.0549 77.5307 11.5625C77.2088 12.0663 76.7637 12.4602 76.1955 12.7443C75.6273 13.0284 74.955 13.1705 74.1785 13.1705ZM81.3391 10.4886L81.3448 7.58523H81.697L84.4925 4.27273H87.2709L83.5152 8.65909H82.9414L81.3391 10.4886ZM79.1459 13V1.36364H81.5664V13H79.1459ZM84.6005 13L82.0323 9.19886L83.6459 7.48864L87.4357 13H84.6005Z" fill="#282828"/>
</svg>
